<svg xmlns="http://www.w3.org/2000/svg" xmlns:xlink="http://www.w3.org/1999/xlink" width="500" zoomAndPan="magnify" viewBox="0 0 375 374.999991" height="500" preserveAspectRatio="xMidYMid meet" version="1.0"><defs><clipPath id="b55a188cfd"><path d="M 30.019531 33 L 266 33 L 266 335 L 30.019531 335 Z M 30.019531 33 " clip-rule="nonzero"/></clipPath><clipPath id="d79dc47865"><path d="M 149 128 L 337.519531 128 L 337.519531 317 L 149 317 Z M 149 128 " clip-rule="nonzero"/></clipPath></defs><g clip-path="url(#b55a188cfd)"><path fill="#fec562" d="M 147.699219 334.769531 C 145.628906 334.769531 143.554688 334.027344 141.914062 332.542969 L 99.183594 293.910156 C 55.273438 254.21875 30.09375 197.503906 30.09375 138.316406 L 30.09375 82.113281 C 30.09375 79.691406 31.109375 77.382812 32.894531 75.746094 C 34.679688 74.113281 37.070312 73.3125 39.480469 73.511719 C 77.171875 76.835938 110.652344 64.523438 141.867188 35.90625 C 145.167969 32.882812 150.234375 32.882812 153.535156 35.90625 C 184.753906 64.527344 218.246094 76.839844 255.921875 73.511719 C 258.332031 73.308594 260.722656 74.113281 262.507812 75.746094 C 264.292969 77.382812 265.308594 79.691406 265.308594 82.113281 L 265.308594 113.601562 C 265.308594 118.371094 261.445312 122.234375 256.675781 122.234375 C 251.910156 122.234375 248.046875 118.371094 248.046875 113.601562 L 248.046875 91.242188 C 211.816406 92.152344 178.121094 79.578125 147.699219 53.777344 C 118.308594 78.707031 85.859375 91.285156 51.015625 91.289062 C 49.796875 91.289062 48.578125 91.273438 47.355469 91.242188 L 47.355469 138.3125 C 47.355469 192.628906 70.464844 244.675781 110.757812 281.101562 L 147.699219 314.5 L 167.757812 296.363281 C 171.296875 293.167969 176.753906 293.441406 179.949219 296.976562 C 183.148438 300.515625 182.871094 305.972656 179.335938 309.167969 L 153.488281 332.535156 C 151.84375 334.023438 149.769531 334.765625 147.699219 334.765625 Z M 147.699219 334.769531 " fill-opacity="1" fill-rule="nonzero"/></g><g clip-path="url(#d79dc47865)"><path fill="#fec562" d="M 261.191406 316.550781 L 225.917969 316.550781 C 219.804688 316.550781 214.832031 311.578125 214.832031 305.464844 L 214.832031 294.617188 C 214.21875 294.371094 213.609375 294.121094 213.003906 293.859375 L 205.328125 301.53125 C 201.007812 305.847656 193.976562 305.851562 189.65625 301.535156 L 164.710938 276.589844 C 162.617188 274.496094 161.464844 271.710938 161.464844 268.75 C 161.464844 265.789062 162.617188 263.003906 164.710938 260.910156 L 172.382812 253.238281 C 172.121094 252.632812 171.867188 252.023438 171.625 251.410156 L 160.773438 251.410156 C 154.660156 251.410156 149.6875 246.4375 149.6875 240.324219 L 149.6875 205.050781 C 149.6875 198.9375 154.660156 193.964844 160.773438 193.964844 L 171.625 193.964844 C 171.867188 193.351562 172.121094 192.742188 172.382812 192.136719 L 164.710938 184.464844 C 162.617188 182.371094 161.464844 179.585938 161.464844 176.625 C 161.464844 173.664062 162.617188 170.878906 164.710938 168.785156 L 189.652344 143.84375 C 191.746094 141.753906 194.527344 140.597656 197.492188 140.597656 C 200.457031 140.597656 203.238281 141.75 205.328125 143.84375 L 213 151.515625 C 213.609375 151.253906 214.21875 151.003906 214.828125 150.757812 L 214.828125 139.910156 C 214.828125 133.796875 219.804688 128.824219 225.914062 128.824219 L 261.191406 128.824219 C 267.304688 128.824219 272.277344 133.796875 272.277344 139.910156 L 272.277344 150.757812 C 272.886719 151.003906 273.5 151.257812 274.105469 151.519531 L 281.777344 143.847656 C 283.871094 141.753906 286.65625 140.601562 289.617188 140.601562 C 292.578125 140.601562 295.363281 141.753906 297.457031 143.851562 L 322.398438 168.789062 C 326.71875 173.109375 326.71875 180.140625 322.402344 184.464844 L 314.726562 192.140625 C 314.988281 192.746094 315.238281 193.355469 315.484375 193.96875 L 326.332031 193.96875 C 332.445312 193.96875 337.417969 198.941406 337.417969 205.054688 L 337.417969 240.328125 C 337.417969 246.441406 332.445312 251.414062 326.332031 251.414062 L 315.484375 251.414062 C 315.238281 252.027344 314.984375 252.636719 314.726562 253.242188 L 322.398438 260.914062 C 326.71875 265.238281 326.714844 272.269531 322.398438 276.589844 L 297.453125 301.53125 C 293.136719 305.851562 286.105469 305.851562 281.78125 301.535156 L 274.105469 293.859375 C 273.5 294.121094 272.890625 294.375 272.277344 294.617188 L 272.277344 305.46875 C 272.277344 311.582031 267.304688 316.554688 261.191406 316.554688 Z M 232.097656 299.289062 L 255.015625 299.289062 L 255.015625 290.300781 C 255.015625 285.519531 258.0625 281.296875 262.597656 279.785156 C 265.28125 278.890625 267.921875 277.796875 270.457031 276.527344 C 274.734375 274.382812 279.878906 275.214844 283.261719 278.597656 L 289.617188 284.953125 L 305.824219 268.75 L 299.46875 262.390625 C 296.085938 259.007812 295.253906 253.863281 297.398438 249.585938 C 298.667969 247.054688 299.761719 244.40625 300.65625 241.730469 C 300.65625 241.730469 300.65625 241.730469 300.65625 241.726562 C 302.167969 237.191406 306.394531 234.148438 311.171875 234.148438 L 320.160156 234.148438 L 320.160156 211.226562 L 311.171875 211.226562 C 306.390625 211.226562 302.167969 208.179688 300.65625 203.644531 C 299.761719 200.964844 298.667969 198.320312 297.398438 195.785156 C 295.253906 191.503906 296.089844 186.355469 299.472656 182.976562 L 305.824219 176.625 L 289.621094 160.421875 L 283.261719 166.777344 C 279.875 170.160156 274.730469 170.988281 270.457031 168.847656 C 267.925781 167.578125 265.28125 166.480469 262.601562 165.589844 C 258.0625 164.078125 255.019531 159.847656 255.019531 155.070312 L 255.019531 146.085938 L 232.097656 146.085938 L 232.097656 155.070312 C 232.097656 159.847656 229.050781 164.074219 224.515625 165.589844 C 221.835938 166.480469 219.191406 167.578125 216.65625 168.847656 C 212.378906 170.988281 207.234375 170.15625 203.851562 166.777344 L 197.492188 160.417969 L 181.289062 176.621094 L 187.644531 182.980469 C 191.03125 186.363281 191.859375 191.511719 189.710938 195.789062 C 188.445312 198.316406 187.351562 200.960938 186.457031 203.640625 C 184.945312 208.175781 180.71875 211.222656 175.941406 211.222656 L 166.953125 211.222656 L 166.953125 234.144531 L 175.941406 234.144531 C 180.714844 234.144531 184.941406 237.1875 186.453125 241.722656 C 187.347656 244.40625 188.441406 247.046875 189.714844 249.585938 C 191.855469 253.851562 191.03125 259 187.648438 262.382812 L 181.285156 268.746094 L 197.492188 284.949219 L 203.847656 278.59375 C 207.226562 275.214844 212.371094 274.375 216.652344 276.523438 C 219.1875 277.792969 221.835938 278.890625 224.511719 279.78125 C 229.046875 281.292969 232.09375 285.519531 232.09375 290.296875 L 232.09375 299.285156 Z M 310.1875 273.117188 L 310.199219 273.117188 Z M 174.273438 257.3125 C 174.273438 257.3125 174.28125 257.320312 174.28125 257.328125 C 174.277344 257.320312 174.277344 257.316406 174.273438 257.3125 Z M 174.273438 257.3125 " fill-opacity="1" fill-rule="nonzero"/></g><path fill="#fec562" d="M 243.554688 272.894531 C 215.871094 272.894531 193.351562 250.371094 193.351562 222.6875 C 193.351562 195.007812 215.875 172.484375 243.554688 172.484375 C 271.238281 172.484375 293.761719 195.007812 293.761719 222.6875 C 293.761719 250.371094 271.238281 272.894531 243.554688 272.894531 Z M 243.554688 189.746094 C 225.390625 189.746094 210.613281 204.523438 210.613281 222.6875 C 210.613281 240.851562 225.390625 255.628906 243.554688 255.628906 C 261.71875 255.628906 276.5 240.851562 276.5 222.6875 C 276.5 204.523438 261.71875 189.746094 243.554688 189.746094 Z M 243.554688 189.746094 " fill-opacity="1" fill-rule="nonzero"/></svg>